<?xml version="1.0" encoding="utf-8"?>
<!-- Generator: Adobe Illustrator 24.1.2, SVG Export Plug-In . SVG Version: 6.00 Build 0)  -->
<svg version="1.1" id="Layer_1" xmlns="http://www.w3.org/2000/svg" xmlns:xlink="http://www.w3.org/1999/xlink" x="0px" y="0px"
	 viewBox="0 0 211.88 211.88" style="enable-background:new 0 0 211.88 211.88;" xml:space="preserve">
<style type="text/css">
	.st0{fill:#0072BB;}
	.st1{fill:#FFFFFF;stroke:#FFFFFF;stroke-miterlimit:10;}
	.st2{fill:#FFEE00;}
	.st3{fill:#FFFFFF;}
</style>
<g>
	<g>
		<circle class="st0" cx="106.19" cy="106.32" r="79.91"/>
		<g>
			<path class="st1" d="M161.26,89.83c-3.95,4.18-8.45,7.56-13.1,10.71h-3.58v2.23c-3.83,2.58-7.89,4.91-12.31,6.86v-19.8H161.26z"
				/>
			<path class="st2" d="M168.6,111.11c-0.6-0.73-0.97-1.39-0.97-1.95c0-0.63,0.41-1.14,0.65-1.46c0.34-0.47,0.59-1.01,0.75-1.57
				c2.13-7.49-1.53-12.45-1.53-12.45l0,0l-6.24,5.49c-1.3,1.03-2.69,2.07-4.16,3.12h0.98v4.34h-6.11v-0.86
				c-5.7,3.67-12.33,7.39-19.69,10.98v10.68h28.99C171.94,125.15,170.43,113.32,168.6,111.11z M158.08,117.21h-13.94v-4.26h13.94
				V117.21z"/>
			<path class="st3" d="M88.54,116.91v3.53c0,3.9-3.17,7.07-7.07,7.07H51.26v-10.59h24.98v-3.5H58.77c-1.38,0-2.68-0.37-3.79-1.02
				c-0.16-0.09-0.31-0.19-0.46-0.29c-1.97-1.35-3.27-3.62-3.27-6.2V96.9c0-3.9,3.17-7.07,7.07-7.07h28.3v10.59H63.42v4.28H77.6v0.05
				h4.34c3.57,0,6.46,2.89,6.46,6.46v5.7H88.54z"/>
			<path class="st3" d="M128.91,111.21c-11.73,6.88-34.5,13.9-37.15,14.7v-9h24.98v-3.5H99.28c-4.15,0-7.51-3.36-7.51-7.51V96.9
				c0-3.9,3.17-7.07,7.07-7.07h28.3v10.59h-23.21v4.28h14.18v0.05h4.34C126.01,104.75,128.91,107.64,128.91,111.21z"/>
			<path class="st2" d="M129.04,118.29v2.14c0,3.9-3.17,7.07-7.07,7.07h-15.26c2.51-0.9,5.04-1.86,7.58-2.86
				C119.45,122.61,124.38,120.48,129.04,118.29z"/>
			<path class="st2" d="M167.51,93.68L167.51,93.68l-6.24,5.49c-1.3,1.03-2.69,2.07-4.16,3.12c-1.62,1.15-3.33,2.31-5.14,3.48
				c-5.7,3.67-12.33,7.39-19.69,10.98c-1.06,0.52-2.14,1.03-3.23,1.54c-4.66,2.18-9.59,4.31-14.75,6.35c-2.54,1-5.07,1.96-7.58,2.86
				c-34.15,12.28-64.62,15.14-68.48,5.84c-2.15-5.16,4.39-12.88,16.3-21.26c2.03-1.5,3.96-2.66,3.96-2.66s-2.26,1.78-3.39,2.85
				c-0.09,0.09-0.19,0.17-0.29,0.25c-0.02,0.02-0.04,0.04-0.06,0.05c-8.48,6.46-12.91,12.27-11.25,16.25
				c2.88,6.94,23.19,5.93,48.27-1.38c6.73-1.96,13.81-4.38,20.99-7.22c5.71-2.26,11.12-4.64,16.16-7.07
				c1.14-0.55,2.26-1.1,3.36-1.66c12.74-6.43,22.82-13.16,28.99-19.1c5.36-5.16,7.77-9.74,6.41-13.01
				c-1.03-2.48-4.21-3.96-9.01-4.49c-0.64-0.07-6.53-0.71-6.53-0.71s3.35-0.4,5.31-0.39c8.99,0.04,15.08,1.65,16.69,5.52
				C175.65,82.99,173.16,88.03,167.51,93.68z"/>
		</g>
	</g>
</g>
</svg>
